<?xml version="1.0" encoding="UTF-8" standalone="no"?>
<!DOCTYPE svg PUBLIC "-//W3C//DTD SVG 1.1//EN"
 "http://www.w3.org/Graphics/SVG/1.1/DTD/svg11.dtd">
<!-- Generated by graphviz version 2.36.0 (20140111.2315)
 -->
<!-- Title: controllers_diagram Pages: 1 -->
<svg width="579pt" height="513pt"
 viewBox="0.00 0.00 579.00 513.00" xmlns="http://www.w3.org/2000/svg" xmlns:xlink="http://www.w3.org/1999/xlink">
<g id="graph0" class="graph" transform="scale(1 1) rotate(0) translate(4 509)">
<title>controllers_diagram</title>
<polygon fill="none" stroke="none" points="-4,4 -4,-509 575,-509 575,4 -4,4"/>
<!-- _diagram_info -->
<g id="node1" class="node"><title>_diagram_info</title>
<text text-anchor="start" x="365" y="-148.6" font-family="Times,serif" font-size="13.00">Controllers diagram</text>
<text text-anchor="start" x="365" y="-134.6" font-family="Times,serif" font-size="13.00">Date: May 17 2016 &#45; 00:23</text>
<text text-anchor="start" x="365" y="-120.6" font-family="Times,serif" font-size="13.00">Migration version: 20160422064716</text>
<text text-anchor="start" x="365" y="-106.6" font-family="Times,serif" font-size="13.00">Generated by RailRoady 1.4.2</text>
<text text-anchor="start" x="365" y="-92.6" font-family="Times,serif" font-size="13.00">http://railroady.prestonlee.com</text>
</g>
<!-- SessionsController -->
<g id="node2" class="node"><title>SessionsController</title>
<path fill="none" stroke="black" d="M12,-0.5C12,-0.5 107,-0.5 107,-0.5 113,-0.5 119,-6.5 119,-12.5 119,-12.5 119,-111.5 119,-111.5 119,-117.5 113,-123.5 107,-123.5 107,-123.5 12,-123.5 12,-123.5 6,-123.5 0,-117.5 0,-111.5 0,-111.5 0,-12.5 0,-12.5 0,-6.5 6,-0.5 12,-0.5"/>
<text text-anchor="middle" x="59.5" y="-108.3" font-family="Times,serif" font-size="14.00">SessionsController</text>
<polyline fill="none" stroke="black" points="0,-100.5 119,-100.5 "/>
<text text-anchor="start" x="8" y="-85.3" font-family="Times,serif" font-size="14.00">create</text>
<text text-anchor="start" x="8" y="-70.3" font-family="Times,serif" font-size="14.00">destroy</text>
<text text-anchor="start" x="8" y="-55.3" font-family="Times,serif" font-size="14.00">logout</text>
<polyline fill="none" stroke="black" points="0,-47.5 119,-47.5 "/>
<polyline fill="none" stroke="black" points="0,-23.5 119,-23.5 "/>
<text text-anchor="start" x="8" y="-8.3" font-family="Times,serif" font-size="14.00">_layout</text>
</g>
<!-- MoviesController -->
<g id="node3" class="node"><title>MoviesController</title>
<path fill="none" stroke="black" d="M318,-306.5C318,-306.5 407,-306.5 407,-306.5 413,-306.5 419,-312.5 419,-318.5 419,-318.5 419,-492.5 419,-492.5 419,-498.5 413,-504.5 407,-504.5 407,-504.5 318,-504.5 318,-504.5 312,-504.5 306,-498.5 306,-492.5 306,-492.5 306,-318.5 306,-318.5 306,-312.5 312,-306.5 318,-306.5"/>
<text text-anchor="middle" x="362.5" y="-489.3" font-family="Times,serif" font-size="14.00">MoviesController</text>
<polyline fill="none" stroke="black" points="306,-481.5 419,-481.5 "/>
<text text-anchor="start" x="314" y="-466.3" font-family="Times,serif" font-size="14.00">create</text>
<text text-anchor="start" x="314" y="-451.3" font-family="Times,serif" font-size="14.00">destroy</text>
<text text-anchor="start" x="314" y="-436.3" font-family="Times,serif" font-size="14.00">edit</text>
<text text-anchor="start" x="314" y="-421.3" font-family="Times,serif" font-size="14.00">index</text>
<text text-anchor="start" x="314" y="-406.3" font-family="Times,serif" font-size="14.00">new</text>
<text text-anchor="start" x="314" y="-391.3" font-family="Times,serif" font-size="14.00">search_tmdb</text>
<text text-anchor="start" x="314" y="-376.3" font-family="Times,serif" font-size="14.00">show</text>
<text text-anchor="start" x="314" y="-361.3" font-family="Times,serif" font-size="14.00">update</text>
<polyline fill="none" stroke="black" points="306,-353.5 419,-353.5 "/>
<polyline fill="none" stroke="black" points="306,-329.5 419,-329.5 "/>
<text text-anchor="start" x="314" y="-314.3" font-family="Times,serif" font-size="14.00">_layout</text>
</g>
<!-- ApplicationController -->
<g id="node4" class="node"><title>ApplicationController</title>
<path fill="none" stroke="black" d="M97,-357.5C97,-357.5 264,-357.5 264,-357.5 270,-357.5 276,-363.5 276,-369.5 276,-369.5 276,-437.5 276,-437.5 276,-443.5 270,-449.5 264,-449.5 264,-449.5 97,-449.5 97,-449.5 91,-449.5 85,-443.5 85,-437.5 85,-437.5 85,-369.5 85,-369.5 85,-363.5 91,-357.5 97,-357.5"/>
<text text-anchor="middle" x="180.5" y="-434.3" font-family="Times,serif" font-size="14.00">ApplicationController</text>
<polyline fill="none" stroke="black" points="85,-426.5 276,-426.5 "/>
<text text-anchor="start" x="93" y="-411.3" font-family="Times,serif" font-size="14.00">_one_time_conditions_valid_8?</text>
<polyline fill="none" stroke="black" points="85,-403.5 276,-403.5 "/>
<text text-anchor="start" x="93" y="-388.3" font-family="Times,serif" font-size="14.00">set_current_user</text>
<polyline fill="none" stroke="black" points="85,-380.5 276,-380.5 "/>
<text text-anchor="start" x="93" y="-365.3" font-family="Times,serif" font-size="14.00">_layout</text>
</g>
<!-- ReviewsController -->
<g id="node5" class="node"><title>ReviewsController</title>
<path fill="none" stroke="black" d="M131,-153.5C131,-153.5 304,-153.5 304,-153.5 310,-153.5 316,-159.5 316,-165.5 316,-165.5 316,-263.5 316,-263.5 316,-269.5 310,-275.5 304,-275.5 304,-275.5 131,-275.5 131,-275.5 125,-275.5 119,-269.5 119,-263.5 119,-263.5 119,-165.5 119,-165.5 119,-159.5 125,-153.5 131,-153.5"/>
<text text-anchor="middle" x="217.5" y="-260.3" font-family="Times,serif" font-size="14.00">ReviewsController</text>
<polyline fill="none" stroke="black" points="119,-252.5 316,-252.5 "/>
<text text-anchor="start" x="127" y="-237.3" font-family="Times,serif" font-size="14.00">_one_time_conditions_valid_20?</text>
<text text-anchor="start" x="127" y="-222.3" font-family="Times,serif" font-size="14.00">create</text>
<text text-anchor="start" x="127" y="-207.3" font-family="Times,serif" font-size="14.00">new</text>
<polyline fill="none" stroke="black" points="119,-199.5 316,-199.5 "/>
<text text-anchor="start" x="127" y="-184.3" font-family="Times,serif" font-size="14.00">has_moviegoer_and_movie</text>
<polyline fill="none" stroke="black" points="119,-176.5 316,-176.5 "/>
<text text-anchor="start" x="127" y="-161.3" font-family="Times,serif" font-size="14.00">_layout</text>
</g>
</g>
</svg>
