<?xml version="1.0" encoding="UTF-8" standalone="no"?>
<!DOCTYPE svg PUBLIC "-//W3C//DTD SVG 1.1//EN"
 "http://www.w3.org/Graphics/SVG/1.1/DTD/svg11.dtd">
<!-- Generated by graphviz version 2.36.0 (20140111.2315)
 -->
<!-- Title: models_diagram Pages: 1 -->
<svg width="371pt" height="158pt"
 viewBox="0.00 0.00 371.00 158.00" xmlns="http://www.w3.org/2000/svg" xmlns:xlink="http://www.w3.org/1999/xlink">
<g id="graph0" class="graph" transform="scale(1 1) rotate(0) translate(4 154)">
<title>models_diagram</title>
<polygon fill="none" stroke="none" points="-4,4 -4,-154 367,-154 367,4 -4,4"/>
<!-- _diagram_info -->
<g id="node1" class="node"><title>_diagram_info</title>
<text text-anchor="start" x="7" y="-135.6" font-family="Times,serif" font-size="13.00">Models diagram</text>
<text text-anchor="start" x="7" y="-121.6" font-family="Times,serif" font-size="13.00">Date: May 17 2016 &#45; 00:23</text>
<text text-anchor="start" x="7" y="-107.6" font-family="Times,serif" font-size="13.00">Migration version: 20160422064716</text>
<text text-anchor="start" x="7" y="-93.6" font-family="Times,serif" font-size="13.00">Generated by RailRoady 1.4.2</text>
<text text-anchor="start" x="7" y="-79.6" font-family="Times,serif" font-size="13.00">http://railroady.prestonlee.com</text>
</g>
<!-- Moviegoer -->
<g id="node2" class="node"><title>Moviegoer</title>
<ellipse fill="none" stroke="black" cx="281" cy="-111" rx="50.0684" ry="18"/>
<text text-anchor="middle" x="281" y="-107.3" font-family="Times,serif" font-size="14.00">Moviegoer</text>
</g>
<!-- Movie -->
<g id="node3" class="node"><title>Movie</title>
<ellipse fill="none" stroke="black" cx="236" cy="-18" rx="34.1708" ry="18"/>
<text text-anchor="middle" x="236" y="-14.3" font-family="Times,serif" font-size="14.00">Movie</text>
</g>
<!-- Moviegoer&#45;&gt;Movie -->
<g id="edge2" class="edge"><title>Moviegoer&#45;&gt;Movie</title>
<path fill="none" stroke="#b78876" d="M268.045,-83.8017C262.005,-71.5873 254.838,-57.0948 248.815,-44.9158"/>
<polygon fill="#b78876" stroke="#b78876" points="268.103,-83.9197 268.502,-94.8783 270.319,-88.4016 272.536,-92.8836 272.536,-92.8836 272.536,-92.8836 270.319,-88.4016 276.57,-90.8889 268.103,-83.9197 268.103,-83.9197"/>
<polygon fill="#b78876" stroke="#b78876" points="248.707,-44.6961 248.308,-33.7375 246.491,-40.2141 244.274,-35.7322 244.274,-35.7322 244.274,-35.7322 246.491,-40.2141 240.24,-37.7269 248.707,-44.6961 248.707,-44.6961"/>
</g>
<!-- Review -->
<g id="node4" class="node"><title>Review</title>
<ellipse fill="none" stroke="black" cx="326" cy="-18" rx="37.5442" ry="18"/>
<text text-anchor="middle" x="326" y="-14.3" font-family="Times,serif" font-size="14.00">Review</text>
</g>
<!-- Moviegoer&#45;&gt;Review -->
<g id="edge1" class="edge"><title>Moviegoer&#45;&gt;Review</title>
<path fill="none" stroke="#fa7df9" d="M293.097,-85.538C299.308,-72.9765 306.877,-57.6718 313.188,-44.909"/>
<ellipse fill="none" stroke="#fa7df9" cx="291.237" cy="-89.298" rx="4.00002" ry="4.00002"/>
<polygon fill="#fa7df9" stroke="#fa7df9" points="313.293,-44.6961 321.76,-37.7269 315.509,-40.2141 317.726,-35.7322 317.726,-35.7322 317.726,-35.7322 315.509,-40.2141 313.692,-33.7375 313.293,-44.6961 313.293,-44.6961"/>
</g>
</g>
</svg>
