<?xml version="1.0" encoding="UTF-8" standalone="no"?>
<!DOCTYPE svg PUBLIC "-//W3C//DTD SVG 1.1//EN"
 "http://www.w3.org/Graphics/SVG/1.1/DTD/svg11.dtd">
<!-- Generated by graphviz version 2.36.0 (20140111.2315)
 -->
<!-- Title: models_diagram Pages: 1 -->
<svg width="455pt" height="304pt"
 viewBox="0.00 0.00 455.00 304.00" xmlns="http://www.w3.org/2000/svg" xmlns:xlink="http://www.w3.org/1999/xlink">
<g id="graph0" class="graph" transform="scale(1 1) rotate(0) translate(4 300)">
<title>models_diagram</title>
<polygon fill="none" stroke="none" points="-4,4 -4,-300 451,-300 451,4 -4,4"/>
<!-- _diagram_info -->
<g id="node1" class="node"><title>_diagram_info</title>
<text text-anchor="start" x="7" y="-259.6" font-family="Times,serif" font-size="13.00">Models diagram</text>
<text text-anchor="start" x="7" y="-245.6" font-family="Times,serif" font-size="13.00">Date: May 17 2016 &#45; 00:23</text>
<text text-anchor="start" x="7" y="-231.6" font-family="Times,serif" font-size="13.00">Migration version: 20160422064716</text>
<text text-anchor="start" x="7" y="-217.6" font-family="Times,serif" font-size="13.00">Generated by RailRoady 1.4.2</text>
<text text-anchor="start" x="7" y="-203.6" font-family="Times,serif" font-size="13.00">http://railroady.prestonlee.com</text>
</g>
<!-- Moviegoer -->
<g id="node2" class="node"><title>Moviegoer</title>
<path fill="none" stroke="black" d="M243,-174.5C243,-174.5 359,-174.5 359,-174.5 365,-174.5 371,-180.5 371,-186.5 371,-186.5 371,-283.5 371,-283.5 371,-289.5 365,-295.5 359,-295.5 359,-295.5 243,-295.5 243,-295.5 237,-295.5 231,-289.5 231,-283.5 231,-283.5 231,-186.5 231,-186.5 231,-180.5 237,-174.5 243,-174.5"/>
<text text-anchor="middle" x="301" y="-280.3" font-family="Times,serif" font-size="14.00">Moviegoer</text>
<polyline fill="none" stroke="black" points="231,-272.5 371,-272.5 "/>
<text text-anchor="start" x="239" y="-257.3" font-family="Times,serif" font-size="14.00">id :INTEGER</text>
<text text-anchor="start" x="239" y="-242.3" font-family="Times,serif" font-size="14.00">name :varchar(255)</text>
<text text-anchor="start" x="239" y="-227.3" font-family="Times,serif" font-size="14.00">provider :varchar(255)</text>
<text text-anchor="start" x="239" y="-212.3" font-family="Times,serif" font-size="14.00">uid :varchar(255)</text>
<text text-anchor="start" x="239" y="-197.3" font-family="Times,serif" font-size="14.00">created_at :datetime</text>
<text text-anchor="start" x="239" y="-182.3" font-family="Times,serif" font-size="14.00">updated_at :datetime</text>
</g>
<!-- Movie -->
<g id="node3" class="node"><title>Movie</title>
<path fill="none" stroke="black" d="M166,-1C166,-1 280,-1 280,-1 286,-1 292,-7 292,-13 292,-13 292,-125 292,-125 292,-131 286,-137 280,-137 280,-137 166,-137 166,-137 160,-137 154,-131 154,-125 154,-125 154,-13 154,-13 154,-7 160,-1 166,-1"/>
<text text-anchor="middle" x="223" y="-121.8" font-family="Times,serif" font-size="14.00">Movie</text>
<polyline fill="none" stroke="black" points="154,-114 292,-114 "/>
<text text-anchor="start" x="162" y="-98.8" font-family="Times,serif" font-size="14.00">id :INTEGER</text>
<text text-anchor="start" x="162" y="-83.8" font-family="Times,serif" font-size="14.00">title :varchar(255)</text>
<text text-anchor="start" x="162" y="-68.8" font-family="Times,serif" font-size="14.00">rating :varchar(255)</text>
<text text-anchor="start" x="162" y="-53.8" font-family="Times,serif" font-size="14.00">description :text</text>
<text text-anchor="start" x="162" y="-38.8" font-family="Times,serif" font-size="14.00">release_date :datetime</text>
<text text-anchor="start" x="162" y="-23.8" font-family="Times,serif" font-size="14.00">created_at :datetime</text>
<text text-anchor="start" x="162" y="-8.8" font-family="Times,serif" font-size="14.00">updated_at :datetime</text>
</g>
<!-- Moviegoer&#45;&gt;Movie -->
<g id="edge2" class="edge"><title>Moviegoer&#45;&gt;Movie</title>
<path fill="none" stroke="#dd158e" d="M268.253,-165.148C265.29,-158.916 262.276,-152.581 259.284,-146.29"/>
<polygon fill="#dd158e" stroke="#dd158e" points="268.324,-165.298 268.556,-176.261 270.472,-169.813 272.62,-174.328 272.62,-174.328 272.62,-174.328 270.472,-169.813 276.683,-172.396 268.324,-165.298 268.324,-165.298"/>
<polygon fill="#dd158e" stroke="#dd158e" points="259.219,-146.153 258.988,-135.19 257.072,-141.638 254.924,-137.123 254.924,-137.123 254.924,-137.123 257.072,-141.638 250.86,-139.056 259.219,-146.153 259.219,-146.153"/>
</g>
<!-- Review -->
<g id="node4" class="node"><title>Review</title>
<path fill="none" stroke="black" d="M322.5,-16C322.5,-16 435.5,-16 435.5,-16 441.5,-16 447.5,-22 447.5,-28 447.5,-28 447.5,-110 447.5,-110 447.5,-116 441.5,-122 435.5,-122 435.5,-122 322.5,-122 322.5,-122 316.5,-122 310.5,-116 310.5,-110 310.5,-110 310.5,-28 310.5,-28 310.5,-22 316.5,-16 322.5,-16"/>
<text text-anchor="middle" x="379" y="-106.8" font-family="Times,serif" font-size="14.00">Review</text>
<polyline fill="none" stroke="black" points="310.5,-99 447.5,-99 "/>
<text text-anchor="start" x="318.5" y="-83.8" font-family="Times,serif" font-size="14.00">id :INTEGER</text>
<text text-anchor="start" x="318.5" y="-68.8" font-family="Times,serif" font-size="14.00">potatoes :integer</text>
<text text-anchor="start" x="318.5" y="-53.8" font-family="Times,serif" font-size="14.00">comments :text</text>
<text text-anchor="start" x="318.5" y="-38.8" font-family="Times,serif" font-size="14.00">moviegoer_id :integer</text>
<text text-anchor="start" x="318.5" y="-23.8" font-family="Times,serif" font-size="14.00">movie_id :integer</text>
</g>
<!-- Moviegoer&#45;&gt;Review -->
<g id="edge1" class="edge"><title>Moviegoer&#45;&gt;Review</title>
<path fill="none" stroke="#437463" d="M332.852,-167.029C338.482,-155.192 344.318,-142.922 349.868,-131.252"/>
<ellipse fill="none" stroke="#437463" cx="331.098" cy="-170.716" rx="4.00002" ry="4.00002"/>
<polygon fill="#437463" stroke="#437463" points="349.954,-131.072 358.313,-123.974 352.101,-126.556 354.249,-122.041 354.249,-122.041 354.249,-122.041 352.101,-126.556 350.185,-120.108 349.954,-131.072 349.954,-131.072"/>
</g>
</g>
</svg>
